<svg width="11" height="13" viewBox="0 0 11 13" fill="none" xmlns="http://www.w3.org/2000/svg">
<path d="M5.50451 0.367188C4.25459 0.368605 3.05627 0.865762 2.17244 1.74959C1.28861 2.63342 0.791457 3.83174 0.790039 5.08166C0.790039 9.11574 5.07592 12.1641 5.25807 12.2927C5.33107 12.3413 5.41681 12.3672 5.50451 12.3672C5.59221 12.3672 5.67795 12.3413 5.75095 12.2927C5.9331 12.1641 10.219 9.11574 10.219 5.08166C10.2176 3.83174 9.7204 2.63342 8.83657 1.74959C7.95275 0.865762 6.75443 0.368605 5.50451 0.367188ZM5.50451 3.3673C5.84357 3.3673 6.17503 3.46785 6.45695 3.65622C6.73887 3.8446 6.95861 4.11234 7.08836 4.4256C7.21812 4.73886 7.25207 5.08356 7.18592 5.41611C7.11977 5.74866 6.95649 6.05413 6.71674 6.29389C6.47698 6.53364 6.17151 6.69692 5.83896 6.76307C5.50641 6.82922 5.16171 6.79527 4.84845 6.66551C4.5352 6.53576 4.26745 6.31602 4.07908 6.0341C3.8907 5.75218 3.79016 5.42072 3.79016 5.08166C3.79016 4.62698 3.97077 4.19093 4.29228 3.86943C4.61378 3.54792 5.04983 3.3673 5.50451 3.3673Z" fill="white"/>
</svg>
