<svg width="13" height="12" viewBox="0 0 13 12" fill="none" xmlns="http://www.w3.org/2000/svg">
<path d="M11.3671 0.929093C11.1968 0.759499 10.9946 0.625332 10.7721 0.534341C10.5497 0.443351 10.3114 0.39734 10.071 0.398967C9.83068 0.400595 9.59304 0.449827 9.37182 0.543821C9.15061 0.637815 8.95022 0.774708 8.78221 0.946592L1.79424 7.93467C1.62286 8.10605 1.50068 8.32035 1.4405 8.55514L0.760939 11.2062C0.709881 11.4054 0.890966 11.5865 1.09014 11.5354L3.7413 10.8554C3.97602 10.7952 4.19025 10.673 4.3616 10.5017L11.3496 3.51355C11.5216 3.34562 11.6585 3.14528 11.7525 2.9241C11.8465 2.70292 11.8958 2.4653 11.8974 2.22497C11.899 1.98464 11.853 1.74638 11.762 1.52395C11.671 1.30152 11.5368 1.09934 11.3671 0.929093Z" fill="#D1DBF9" stroke="#D1DBF9" stroke-width="0.676194" stroke-linecap="round" stroke-linejoin="round"/>
</svg>
