<svg width="13" height="11" viewBox="0 0 13 11" fill="none" xmlns="http://www.w3.org/2000/svg">
<path fill-rule="evenodd" clip-rule="evenodd" d="M0.579428 2.12534C0.530234 2.29898 0.503906 2.48223 0.503906 2.67163V8.06266C0.503906 9.16723 1.39934 10.0627 2.50391 10.0627H10.5039C11.6085 10.0627 12.5039 9.16723 12.5039 8.06266V2.67163C12.5039 2.48281 12.4777 2.30009 12.4288 2.12692L7.62411 6.12302C6.97558 6.66239 6.03458 6.66239 5.38606 6.12302L0.579428 2.12534ZM11.5082 0.941657C11.213 0.769965 10.8699 0.671631 10.5039 0.671631H2.50391C2.13844 0.671631 1.79587 0.769658 1.50105 0.940853L6.34522 4.96976C6.43787 5.04681 6.5723 5.04681 6.66494 4.96976L11.5082 0.941657Z" fill="white"/>
</svg>
