<svg width="13" height="13" viewBox="0 0 13 13" fill="none" xmlns="http://www.w3.org/2000/svg">
<path d="M3.93408 6.40849C4.47194 7.51922 5.37009 8.41507 6.4822 8.95008C6.56424 8.98893 6.65497 9.00574 6.74548 8.99887C6.83598 8.99199 6.92313 8.96167 6.99836 8.91088L8.63177 7.81976C8.70394 7.77082 8.78733 7.74095 8.87417 7.73295C8.961 7.72495 9.04844 7.73909 9.12833 7.77403L12.1861 9.08729C12.2906 9.13079 12.3779 9.20743 12.4346 9.30542C12.4912 9.40341 12.5141 9.51731 12.4997 9.62959C12.4028 10.386 12.0336 11.0812 11.4611 11.5851C10.8887 12.089 10.1523 12.367 9.38968 12.3672C7.03303 12.3672 4.77289 11.431 3.10649 9.7646C1.44008 8.0982 0.503906 5.83807 0.503906 3.48142C0.504078 2.7188 0.782119 1.98239 1.286 1.40996C1.78988 0.837525 2.48508 0.46831 3.24151 0.371395C3.35378 0.356973 3.46768 0.379858 3.56567 0.436527C3.66366 0.493195 3.74031 0.580505 3.7838 0.68501L5.09707 3.74929C5.13122 3.82793 5.1455 3.91375 5.13867 3.9992C5.13183 4.08466 5.10408 4.16712 5.05787 4.23932L3.96674 5.89887C3.91817 5.97393 3.88966 6.06019 3.88394 6.14942C3.87822 6.23864 3.89548 6.32784 3.93408 6.40849Z" fill="white"/>
</svg>
